<?xml version="1.0" encoding="UTF-8"?>
<!DOCTYPE svg PUBLIC "-//W3C//DTD SVG 1.1//EN" "http://www.w3.org/Graphics/SVG/1.1/DTD/svg11.dtd">
<svg xmlns="http://www.w3.org/2000/svg" version="1.1" width="150px" height="113px" style="shape-rendering:geometricPrecision; text-rendering:geometricPrecision; image-rendering:optimizeQuality; fill-rule:evenodd; clip-rule:evenodd" xmlns:xlink="http://www.w3.org/1999/xlink">
<g><path style="opacity:0.575" fill="#b1e813" d="M 87.5,26.5 C 87.5,26.8333 87.5,27.1667 87.5,27.5C 86.8333,27.5 86.5,27.8333 86.5,28.5C 86.5,28.8333 86.5,29.1667 86.5,29.5C 82.3915,30.7626 78.3915,32.4293 74.5,34.5C 70.4237,32.8139 66.4237,31.1472 62.5,29.5C 62.5,29.1667 62.5,28.8333 62.5,28.5C 62.5,28.1667 62.5,27.8333 62.5,27.5C 70.4057,22.4949 78.7391,22.1616 87.5,26.5 Z"/></g>
<g><path style="opacity:0.868" fill="#fc2f8a" d="M 62.5,27.5 C 62.5,27.8333 62.5,28.1667 62.5,28.5C 61.8333,28.5 61.5,28.8333 61.5,29.5C 45.3703,40.0639 41.537,54.0639 50,71.5C 53.0703,76.0727 56.9036,79.7393 61.5,82.5C 61.5,83.1667 61.8333,83.5 62.5,83.5C 62.5,83.8333 62.5,84.1667 62.5,84.5C 54.681,86.1924 48.0143,84.8591 42.5,80.5C 42.1667,79.8333 41.8333,79.1667 41.5,78.5C 42.8333,78.1667 42.8333,77.8333 41.5,77.5C 41.5,76.8333 41.1667,76.5 40.5,76.5C 40.5,75.8333 40.1667,75.5 39.5,75.5C 39.5,74.8333 39.1667,74.5 38.5,74.5C 38.5,73.8333 38.1667,73.5 37.5,73.5C 37.0679,72.2905 36.4013,71.2905 35.5,70.5C 35.5,69.8333 35.1667,69.5 34.5,69.5C 34.6716,68.5084 34.3382,67.8417 33.5,67.5C 33.6716,66.5084 33.3382,65.8417 32.5,65.5C 32.7678,63.901 32.4345,62.5676 31.5,61.5C 31.5,57.8333 31.5,54.1667 31.5,50.5C 32.4345,49.4324 32.7678,48.099 32.5,46.5C 33.3382,46.1583 33.6716,45.4916 33.5,44.5C 34.3382,44.1583 34.6716,43.4916 34.5,42.5C 35.1667,42.5 35.5,42.1667 35.5,41.5C 36.4013,40.7095 37.0679,39.7095 37.5,38.5C 38.1667,38.5 38.5,38.1667 38.5,37.5C 39.1667,37.5 39.5,37.1667 39.5,36.5C 40.1667,36.5 40.5,36.1667 40.5,35.5C 41.1667,35.5 41.5,35.1667 41.5,34.5C 42.8333,34.1667 42.8333,33.8333 41.5,33.5C 44.841,28.7057 50.0076,26.3724 57,26.5C 58.9238,26.5811 60.7571,26.9144 62.5,27.5 Z"/></g>
<g><path style="opacity:0.851" fill="#16e4f9" d="M 87.5,27.5 C 87.5,27.1667 87.5,26.8333 87.5,26.5C 95.9281,25.83 102.428,27.83 107,32.5C 108.84,31.1669 109.34,31.3335 108.5,33C 110,34.5 111.5,36 113,37.5C 114.625,36.5881 115.459,37.2547 115.5,39.5C 114.833,39.5 114.5,39.8333 114.5,40.5C 113.167,41.1667 113.167,41.8333 114.5,42.5C 114.328,43.4916 114.662,44.1583 115.5,44.5C 115.328,45.4916 115.662,46.1583 116.5,46.5C 116.263,47.791 116.596,48.791 117.5,49.5C 117.5,53.8333 117.5,58.1667 117.5,62.5C 116.596,63.209 116.263,64.209 116.5,65.5C 115.662,65.8417 115.328,66.5084 115.5,67.5C 114.662,67.8417 114.328,68.5084 114.5,69.5C 113.167,70.1667 113.167,70.8333 114.5,71.5C 114.5,72.1667 114.833,72.5 115.5,72.5C 115.573,74.0269 114.906,75.0269 113.5,75.5C 113.167,74.1667 112.833,74.1667 112.5,75.5C 111.833,75.5 111.5,75.8333 111.5,76.5C 110.833,76.5 110.5,76.8333 110.5,77.5C 109.833,77.5 109.5,77.8333 109.5,78.5C 108.167,78.8333 108.167,79.1667 109.5,79.5C 109.158,80.3382 108.492,80.6716 107.5,80.5C 107.167,79.1667 106.833,79.1667 106.5,80.5C 101.805,84.2837 95.472,85.9503 87.5,85.5C 87.5,85.1667 87.5,84.8333 87.5,84.5C 88.1667,84.1667 88.8333,83.8333 89.5,83.5C 97.5,83.1667 97.5,82.8333 89.5,82.5C 89.0618,82.5654 88.7284,82.3988 88.5,82C 103.29,71.6281 107.123,58.1281 100,41.5C 96.8333,37 93,33.1667 88.5,30C 88.7284,29.6012 89.0618,29.4346 89.5,29.5C 97.5,29.1667 97.5,28.8333 89.5,28.5C 88.8333,28.1667 88.1667,27.8333 87.5,27.5 Z"/></g>
<g><path style="opacity:1" fill="#0ec119" d="M 86.5,28.5 C 86.5,27.8333 86.8333,27.5 87.5,27.5C 88.1667,27.8333 88.8333,28.1667 89.5,28.5C 89.5,28.8333 89.5,29.1667 89.5,29.5C 89.0618,29.4346 88.7284,29.6012 88.5,30C 93,33.1667 96.8333,37 100,41.5C 107.123,58.1281 103.29,71.6281 88.5,82C 88.7284,82.3988 89.0618,82.5654 89.5,82.5C 89.5,82.8333 89.5,83.1667 89.5,83.5C 88.8333,83.8333 88.1667,84.1667 87.5,84.5C 86.8333,84.5 86.5,84.1667 86.5,83.5C 87.8333,83.1667 87.8333,82.8333 86.5,82.5C 82.3088,81.2163 78.3088,79.5496 74.5,77.5C 74.5,77.1667 74.5,76.8333 74.5,76.5C 81.1569,71.5092 87.1569,65.8425 92.5,59.5C 93.3121,60.9931 94.6455,61.6598 96.5,61.5C 98.6228,61.7801 99.9561,60.9468 100.5,59C 99.6367,56.6381 97.9701,55.1381 95.5,54.5C 96.8333,53.8333 98.1667,53.1667 99.5,52.5C 96.9004,51.1544 94.5671,51.4877 92.5,53.5C 87.5,46.5 81.5,40.5 74.5,35.5C 74.5,35.1667 74.5,34.8333 74.5,34.5C 78.3915,32.4293 82.3915,30.7626 86.5,29.5C 87.8333,29.1667 87.8333,28.8333 86.5,28.5 Z"/></g>
<g><path style="opacity:0.008" fill="#fd2d8b" d="M 41.5,33.5 C 41.5,33.8333 41.5,34.1667 41.5,34.5C 40.8333,34.5 40.5,34.8333 40.5,35.5C 39.8333,35.5 39.5,35.8333 39.5,36.5C 38.8333,36.5 38.5,36.8333 38.5,37.5C 37.8333,37.5 37.5,37.8333 37.5,38.5C 36.603,37.4019 35.7697,37.4019 35,38.5C 34.5403,36.2858 35.207,35.6192 37,36.5C 38.8445,35.2893 39.6778,33.956 39.5,32.5C 40.1835,32.8627 40.8501,33.1961 41.5,33.5 Z"/></g>
<g><path style="opacity:1" fill="#0c0e0c" d="M 74.5,35.5 C 81.5,40.5 87.5,46.5 92.5,53.5C 92.7329,55.0618 93.3995,56.3951 94.5,57.5C 93.8333,57.5 93.5,57.8333 93.5,58.5C 92.8333,58.5 92.5,58.8333 92.5,59.5C 87.1569,65.8425 81.1569,71.5092 74.5,76.5C 68.8604,71.5271 63.5271,66.1937 58.5,60.5C 60.0146,57.263 59.6813,54.263 57.5,51.5C 58.8333,50.5 60.1667,49.5 61.5,48.5C 65.5271,43.8062 69.8604,39.4729 74.5,35.5 Z"/></g>
<g><path style="opacity:0.008" fill="#fe2d8b" d="M 35.5,41.5 C 34.8333,41.5 34.5,41.8333 34.5,42.5C 33.6618,42.8417 33.3284,43.5084 33.5,44.5C 32.6618,44.8417 32.3284,45.5084 32.5,46.5C 31.5655,47.5676 31.2322,48.901 31.5,50.5C 30.1667,54.1667 30.1667,57.8333 31.5,61.5C 31.2322,63.099 31.5655,64.4324 32.5,65.5C 32.3284,66.4916 32.6618,67.1583 33.5,67.5C 33.3284,68.4916 33.6618,69.1583 34.5,69.5C 35.1667,69.5 35.5,69.8333 35.5,70.5C 35.631,71.2389 35.4643,71.9056 35,72.5C 34.3333,71.1667 33.6667,71.1667 33,72.5C 27,61.5 27,50.5 33,39.5C 33.6667,40.8333 34.3333,40.8333 35,39.5C 35.4643,40.0944 35.631,40.7611 35.5,41.5 Z"/></g>
<g><path style="opacity:0.007" fill="#16e5fa" d="M 115.5,39.5 C 115.858,41.9673 117.191,44.134 119.5,46C 119.167,46.3333 118.833,46.6667 118.5,47C 121.167,53 121.167,59 118.5,65C 118.833,65.3333 119.167,65.6667 119.5,66C 118.267,68.3143 116.933,70.4809 115.5,72.5C 114.833,72.5 114.5,72.1667 114.5,71.5C 114.5,70.8333 114.5,70.1667 114.5,69.5C 115.338,69.1583 115.672,68.4916 115.5,67.5C 116.338,67.1583 116.672,66.4916 116.5,65.5C 117.404,64.791 117.737,63.791 117.5,62.5C 118.833,58.1667 118.833,53.8333 117.5,49.5C 117.737,48.209 117.404,47.209 116.5,46.5C 116.672,45.5084 116.338,44.8417 115.5,44.5C 115.672,43.5084 115.338,42.8417 114.5,42.5C 114.5,41.8333 114.5,41.1667 114.5,40.5C 115.167,40.5 115.5,40.1667 115.5,39.5 Z"/></g>
<g><path style="opacity:1" fill="#dfdfdf" d="M 61.5,48.5 C 62.9778,48.238 64.3112,48.5713 65.5,49.5C 64.6798,51.1112 63.3464,51.7778 61.5,51.5C 61.5,50.5 61.5,49.5 61.5,48.5 Z"/></g>
<g><path style="opacity:1" fill="#d7d7d7" d="M 67.5,48.5 C 68.8333,48.5 70.1667,48.5 71.5,48.5C 71.5,49.5 71.5,50.5 71.5,51.5C 69.0274,51.9118 67.6941,50.9118 67.5,48.5 Z"/></g>
<g><path style="opacity:1" fill="#ecd9e2" d="M 57.5,51.5 C 59.6813,54.263 60.0146,57.263 58.5,60.5C 55.2947,62.0214 52.2947,61.688 49.5,59.5C 48.5741,55.9062 48.2408,52.2396 48.5,48.5C 49.5,48.5 50.5,48.5 51.5,48.5C 51.5,49.5 51.5,50.5 51.5,51.5C 53.5,51.5 55.5,51.5 57.5,51.5 Z"/></g>
<g><path style="opacity:1" fill="#d0d0d0" d="M 74.5,48.5 C 76.0568,49.4663 77.3901,50.7996 78.5,52.5C 76.8267,54.5225 76.1601,56.8559 76.5,59.5C 79.9877,59.8991 80.1544,60.5658 77,61.5C 75.6739,61.2451 74.6739,60.5784 74,59.5C 73.2446,55.7446 73.4113,52.0779 74.5,48.5 Z"/></g>
<g><path style="opacity:1" fill="#f4f4f4" d="M 62.5,53.5 C 63.7479,54.3339 64.4146,55.6672 64.5,57.5C 64.1667,58.8333 63.8333,60.1667 63.5,61.5C 62.52,58.9135 62.1866,56.2469 62.5,53.5 Z"/></g>
<g><path style="opacity:1" fill="#f7f7f7" d="M 68.5,53.5 C 69.7479,54.3339 70.4146,55.6672 70.5,57.5C 70.1667,58.8333 69.8333,60.1667 69.5,61.5C 68.52,58.9135 68.1866,56.2469 68.5,53.5 Z"/></g>
<g><path style="opacity:1" fill="#cfcfcf" d="M 83.5,51.5 C 87.8514,50.533 90.1847,52.1996 90.5,56.5C 88.1727,56.2471 86.1727,56.9137 84.5,58.5C 86.1353,59.6808 87.802,59.6808 89.5,58.5C 90.7112,59.2739 90.7112,60.1072 89.5,61C 81.424,61.8047 79.424,58.638 83.5,51.5 Z"/></g>
<g><path style="opacity:1" fill="#ddf1de" d="M 92.5,59.5 C 92.5,58.8333 92.8333,58.5 93.5,58.5C 94.9464,59.6129 96.6131,59.7796 98.5,59C 97.4366,57.8118 96.1033,57.3118 94.5,57.5C 93.3995,56.3951 92.7329,55.0618 92.5,53.5C 94.5671,51.4877 96.9004,51.1544 99.5,52.5C 98.1667,53.1667 96.8333,53.8333 95.5,54.5C 97.9701,55.1381 99.6367,56.6381 100.5,59C 99.9561,60.9468 98.6228,61.7801 96.5,61.5C 94.6455,61.6598 93.3121,60.9931 92.5,59.5 Z"/></g>
<g><path style="opacity:1" fill="#792548" d="M 52.5,53.5 C 57.1585,53.0146 58.4919,54.848 56.5,59C 51.7282,59.8104 50.3948,57.9771 52.5,53.5 Z"/></g>
<g><path style="opacity:1" fill="#1fc122" d="M 94.5,57.5 C 96.1033,57.3118 97.4366,57.8118 98.5,59C 96.6131,59.7796 94.9464,59.6129 93.5,58.5C 93.5,57.8333 93.8333,57.5 94.5,57.5 Z"/></g>
<g><path style="opacity:1" fill="#931752" d="M 61.5,29.5 C 61.8333,29.5 62.1667,29.5 62.5,29.5C 66.4237,31.1472 70.4237,32.8139 74.5,34.5C 74.5,34.8333 74.5,35.1667 74.5,35.5C 69.8604,39.4729 65.5271,43.8062 61.5,48.5C 60.1667,49.5 58.8333,50.5 57.5,51.5C 55.5,51.5 53.5,51.5 51.5,51.5C 51.5,50.5 51.5,49.5 51.5,48.5C 50.5,48.5 49.5,48.5 48.5,48.5C 48.2408,52.2396 48.5741,55.9062 49.5,59.5C 52.2947,61.688 55.2947,62.0214 58.5,60.5C 63.5271,66.1937 68.8604,71.5271 74.5,76.5C 74.5,76.8333 74.5,77.1667 74.5,77.5C 70.4237,79.1861 66.4237,80.8528 62.5,82.5C 62.1667,82.5 61.8333,82.5 61.5,82.5C 56.9036,79.7393 53.0703,76.0727 50,71.5C 41.537,54.0639 45.3703,40.0639 61.5,29.5 Z"/></g>
<g><path style="opacity:0.008" fill="#fd2d8b" d="M 37.5,73.5 C 38.1667,73.5 38.5,73.8333 38.5,74.5C 39.1667,74.5 39.5,74.8333 39.5,75.5C 40.1667,75.5 40.5,75.8333 40.5,76.5C 41.1667,76.5 41.5,76.8333 41.5,77.5C 41.5,77.8333 41.5,78.1667 41.5,78.5C 40.8501,78.8039 40.1835,79.1373 39.5,79.5C 39.6778,78.044 38.8445,76.7107 37,75.5C 35.207,76.3808 34.5403,75.7142 35,73.5C 35.7697,74.5981 36.603,74.5981 37.5,73.5 Z"/></g>
<g><path style="opacity:0.004" fill="#16e5fb" d="M 112.5,75.5 C 112.833,75.5 113.167,75.5 113.5,75.5C 113.315,76.1701 112.981,76.1701 112.5,75.5 Z"/></g>
<g><path style="opacity:0.004" fill="#17e5fc" d="M 111.5,76.5 C 111.833,76.5 112.167,76.5 112.5,76.5C 112.315,77.1701 111.981,77.1701 111.5,76.5 Z"/></g>
<g><path style="opacity:0.004" fill="#16e5fb" d="M 110.5,77.5 C 110.833,77.5 111.167,77.5 111.5,77.5C 111.315,78.1701 110.981,78.1701 110.5,77.5 Z"/></g>
<g><path style="opacity:0.557" fill="#b2ea13" d="M 74.5,77.5 C 78.3088,79.5496 82.3088,81.2163 86.5,82.5C 86.5,82.8333 86.5,83.1667 86.5,83.5C 86.5,84.1667 86.8333,84.5 87.5,84.5C 87.5,84.8333 87.5,85.1667 87.5,85.5C 78.7391,89.8384 70.4057,89.5051 62.5,84.5C 62.5,84.1667 62.5,83.8333 62.5,83.5C 62.5,83.1667 62.5,82.8333 62.5,82.5C 66.4237,80.8528 70.4237,79.1861 74.5,77.5 Z"/></g>
<g><path style="opacity:0.004" fill="#16e5fb" d="M 109.5,78.5 C 109.833,78.5 110.167,78.5 110.5,78.5C 110.315,79.1701 109.981,79.1701 109.5,78.5 Z"/></g>
<g><path style="opacity:0.004" fill="#fe2d8a" d="M 42.5,80.5 C 41.8333,81.1667 41.8333,81.1667 42.5,80.5 Z"/></g>
<g><path style="opacity:0.004" fill="#17e5fc" d="M 106.5,80.5 C 106.833,80.5 107.167,80.5 107.5,80.5C 107.315,81.1701 106.981,81.1701 106.5,80.5 Z"/></g>
</svg>
